<?xml version="1.0" encoding="UTF-8"?>
<svg version="1.1" xmlns="http://www.w3.org/2000/svg" width="500" height="500">
<path d="M0 0 C3.41248352 2.77372302 4.40708972 4.99502893 5.6844635 9.18197632 C5.91707211 14.06278388 5.39036817 18.33368114 4.2938385 23.08432007 C4.14935776 23.71901718 4.00487701 24.35371429 3.85601807 25.00764465 C3.38967965 27.04673649 2.91240402 29.08307572 2.4344635 31.11947632 C2.10788425 32.53489098 1.78179597 33.95041901 1.45619202 35.36605835 C-0.37763846 43.3085792 -2.27240639 51.23367909 -4.292099 59.13119507 C-5.66872383 64.53018922 -6.95526227 69.95110629 -8.2530365 75.36947632 C-8.51020447 76.44125122 -8.76737244 77.51302612 -9.03233337 78.61727905 C-10.24590614 83.68287544 -11.45131421 88.75013218 -12.635849 93.82260132 C-14.76381051 102.91133929 -17.00805018 111.93674216 -19.57920837 120.91122437 C-20.85441542 125.39114815 -21.92332572 129.87000695 -22.8780365 134.43197632 C-24.51274181 141.69225968 -27.07321816 145.87304268 -33.3155365 150.18197632 C-36.573349 151.08822632 -36.573349 151.08822632 -40.4405365 151.68197632 C-41.15991394 151.79742798 -41.87929138 151.91287964 -42.62046814 152.03182983 C-47.34070112 152.77651376 -52.07392152 153.43553098 -56.80381775 154.11557007 C-59.12027246 154.44986988 -61.43667791 154.78451112 -63.7530365 155.11947632 C-64.91093689 155.28544312 -66.06883728 155.45140991 -67.26182556 155.62240601 C-74.87993278 156.74138933 -82.37126545 158.12307095 -89.84849548 159.96298218 C-93.41774318 160.83198214 -96.63722185 161.38080414 -100.3155365 161.18197632 C-100.2530365 158.99447632 -100.2530365 158.99447632 -99.3155365 156.18197632 C-93.54996523 150.94054789 -86.55618719 148.7828108 -79.3155365 146.18197632 C-78.02326266 145.66265132 -76.73149085 145.14207272 -75.4405365 144.61947632 C-66.54181967 141.30832587 -57.07101533 139.07331217 -47.682724 137.77182007 C-44.67684638 137.02283076 -42.80218506 136.05418141 -40.3155365 134.18197632 C-38.97820231 131.21623632 -38.97820231 131.21623632 -38.2530365 127.70541382 C-38.09607803 127.06760986 -37.93911957 126.42980591 -37.77740479 125.77267456 C-37.27208033 123.70466437 -36.79408411 121.63132884 -36.3155365 119.55697632 C-35.79862399 117.41673322 -35.27476024 115.27826604 -34.75067139 113.13977051 C-34.40700921 111.73496655 -34.06567423 110.32959116 -33.72671509 108.92364502 C-32.51573844 103.91312439 -31.14216243 98.98214185 -29.6280365 94.05697632 C-27.88571223 88.32847829 -26.43761391 82.58626568 -25.0967865 76.75228882 C-23.21807424 68.72446553 -21.16671825 60.75724514 -18.98350525 52.80697632 C-18.6991713 51.77098297 -18.41483734 50.73498962 -18.12188721 49.66760254 C-16.95137392 45.41479049 -15.77567492 41.16344532 -14.59507751 36.91342163 C-13.71907791 33.75442062 -12.8508327 30.59336745 -11.98350525 27.43197632 C-11.71483139 26.47371948 -11.44615753 25.51546265 -11.16934204 24.52816772 C-10.92521072 23.63533081 -10.68107941 22.7424939 -10.42955017 21.82260132 C-10.21368759 21.04432983 -9.99782501 20.26605835 -9.77542114 19.46420288 C-9.27576525 16.98460724 -9.23605132 14.70487747 -9.3155365 12.18197632 C-17.78612363 11.85642438 -25.99719555 12.86220909 -34.3780365 13.99447632 C-35.77653909 14.17876339 -37.17505811 14.36292585 -38.57359314 14.54696655 C-45.49314767 15.46800768 -52.3910383 16.45540032 -59.2530365 17.74447632 C-65.5887305 18.93043706 -71.91577557 19.79251057 -78.3155365 20.55697632 C-87.85889229 21.70651333 -97.37531314 23.00162571 -106.88316345 24.4125061 C-108.37397364 24.63296604 -109.86518651 24.85072072 -111.35679626 25.06570435 C-113.45493671 25.3689558 -115.55133532 25.68224425 -117.64756775 25.99838257 C-119.46865051 26.26823975 -119.46865051 26.26823975 -121.32652283 26.54354858 C-124.47935486 27.02493003 -124.47935486 27.02493003 -127.3155365 29.18197632 C-128.73394974 31.91280581 -128.73394974 31.91280581 -129.9874115 35.19369507 C-130.23042496 35.79376373 -130.47343842 36.3938324 -130.72381592 37.01208496 C-131.24284805 38.29562607 -131.75784795 39.58080374 -132.2691803 40.86743164 C-133.60171843 44.2174412 -134.96588899 47.55453976 -136.32725525 50.89291382 C-136.59162888 51.5432106 -136.8560025 52.19350739 -137.12838745 52.86351013 C-139.65018203 59.04799511 -142.42781589 65.06606583 -145.32286072 71.08432007 C-148.05977581 76.86778648 -150.67536748 82.70940475 -153.32164001 88.53475952 C-156.18991588 94.8193596 -159.18046768 101.02604113 -162.3155365 107.18197632 C-162.9755365 107.18197632 -163.6355365 107.18197632 -164.3155365 107.18197632 C-163.98500971 98.78178834 -161.72507462 91.40481476 -159.0030365 83.49447632 C-158.55995501 82.1872008 -158.11692219 80.87990878 -157.67393494 79.57260132 C-154.35506141 69.86038535 -150.77287693 60.25191631 -147.0655365 50.68197632 C-146.82177277 50.05256134 -146.57800903 49.42314636 -146.32685852 48.7746582 C-142.84748322 39.82473687 -139.14510778 30.98628532 -135.3155365 22.18197632 C-134.6555365 22.18197632 -133.9955365 22.18197632 -133.3155365 22.18197632 C-133.3155365 21.52197632 -133.3155365 20.86197632 -133.3155365 20.18197632 C-126.64313863 16.14949003 -120.02387241 15.05994657 -112.4122467 14.00064087 C-108.27630009 13.42364512 -104.14749553 12.79976643 -100.0186615 12.17416382 C-99.0757576 12.03175262 -98.1328537 11.88934143 -97.16137695 11.74261475 C-88.07756908 10.34601681 -79.03396083 8.74400042 -69.9874115 7.12728882 C-68.44830407 6.85334567 -66.90917535 6.57952211 -65.37002563 6.30581665 C-56.06910122 4.65039601 -56.06910122 4.65039601 -46.77296448 2.96835327 C-43.06530089 2.29201048 -39.35560277 1.62804849 -35.64429474 0.97201157 C-34.26957786 0.72660271 -32.89565768 0.47667578 -31.52269745 0.22162247 C-7.66689263 -4.2040232 -7.66689263 -4.2040232 0 0 Z " fill="#2B4C95" transform="translate(399.31553649902344,126.81802368164063)"/>
<path d="M0 0 C11.30960668 5.6026235 22.35671546 8.56987625 34.8671875 10.12109375 C35.88832138 10.24812935 35.88832138 10.24812935 36.93008423 10.37773132 C40.37602761 10.80082323 43.82265105 11.19972275 47.27539062 11.56323242 C57.26259805 12.70047009 65.5480983 14.14183352 72.27734375 22.1328125 C74.40001327 26.37815154 73.97007457 31.95296934 72.55859375 36.39453125 C68.33777466 45.32973295 60.62348137 50.27300844 51.82421875 54.23828125 C35.75833884 59.88105195 18.79750447 56.96632644 3.27734375 51.1328125 C2.48199219 50.83503906 1.68664062 50.53726563 0.8671875 50.23046875 C-10.84571417 45.6743651 -22.30799139 40.3806563 -33.72265625 35.1328125 C-33.72265625 34.4728125 -33.72265625 33.8128125 -33.72265625 33.1328125 C-20.73957961 32.85133658 -8.93589125 35.61118925 3.46533203 39.16210938 C20.60094847 44.05993263 36.58942297 47.16843868 53.32421875 39.15234375 C56.67272416 37.12169072 58.8248913 34.76394363 60.27734375 31.1328125 C59.77975761 28.95941838 59.77975761 28.95941838 58.27734375 27.1328125 C55.86245335 26.2666584 55.86245335 26.2666584 52.90234375 26.0078125 C51.73574219 25.85828125 50.56914062 25.70875 49.3671875 25.5546875 C46.42483382 25.23659521 43.4794412 24.96879334 40.53125 24.7109375 C20.78501193 22.96618953 3.81618984 18.05885547 -13.91088867 9.01806641 C-31.11615277 0.30827858 -49.94255285 -3.02249604 -68.74267578 2.75341797 C-83.76890265 7.73062332 -96.89346001 15.43523064 -108.90234375 25.734375 C-110.72265625 27.1328125 -110.72265625 27.1328125 -112.72265625 27.1328125 C-112.72265625 27.7928125 -112.72265625 28.4528125 -112.72265625 29.1328125 C-115.7080652 32.46269171 -118.68871281 34.81467606 -122.97265625 36.1328125 C-125.72265625 36.1328125 -125.72265625 36.1328125 -128.72265625 34.1328125 C-129.33983061 29.8928748 -129.28149488 27.89131386 -126.7109375 24.40234375 C-125.82792969 23.59152344 -124.94492188 22.78070313 -124.03515625 21.9453125 C-123.16503906 21.12675781 -122.29492188 20.30820312 -121.3984375 19.46484375 C-114.13304151 13.1328125 -114.13304151 13.1328125 -111.72265625 13.1328125 C-111.72265625 12.4728125 -111.72265625 11.8128125 -111.72265625 11.1328125 C-109.63122715 9.45725835 -107.5452462 7.90809583 -105.34765625 6.3828125 C-104.70497803 5.93325195 -104.0622998 5.48369141 -103.40014648 5.02050781 C-101.51545706 3.71273531 -99.62184739 2.41941171 -97.72265625 1.1328125 C-96.85511719 0.545 -95.98757812 -0.0428125 -95.09375 -0.6484375 C-83.97726151 -7.72085657 -71.66358361 -11.75691637 -58.72265625 -13.8671875 C-57.81257813 -14.021875 -56.9025 -14.1765625 -55.96484375 -14.3359375 C-35.89308249 -16.97222853 -17.4877896 -8.773816 0 0 Z " fill="#2B4C95" transform="translate(219.72265625,256.8671875)"/>
<path d="M0 0 C1.8125 1.875 1.8125 1.875 2.125 5.0625 C1.9703125 6.4546875 1.9703125 6.4546875 1.8125 7.875 C1.1525 7.875 0.4925 7.875 -0.1875 7.875 C-0.1875 8.535 -0.1875 9.195 -0.1875 9.875 C-1.23808594 10.39449219 -2.28867187 10.91398437 -3.37109375 11.44921875 C-4.78929879 12.15317 -6.20725112 12.8576305 -7.625 13.5625 C-8.35549561 13.92537109 -9.08599121 14.28824219 -9.83862305 14.66210938 C-14.48058857 16.98180456 -19.03116111 19.40048719 -23.48828125 22.0625 C-25.1875 22.875 -25.1875 22.875 -28.1875 22.875 C-28.1875 23.535 -28.1875 24.195 -28.1875 24.875 C-28.73494873 25.1743042 -29.28239746 25.4736084 -29.84643555 25.78198242 C-35.3122046 28.7913308 -40.68109361 31.9263237 -46 35.1875 C-46.78407227 35.66606445 -47.56814453 36.14462891 -48.37597656 36.63769531 C-52.81162751 39.36102105 -57.15100281 42.17335831 -61.4375 45.125 C-67.72391007 49.37680432 -74.34290402 52.63490769 -81.1875 55.875 C-82.13625 56.35066406 -83.085 56.82632813 -84.0625 57.31640625 C-107.58032797 68.76767423 -132.93341131 64.38859115 -156.8125 56.4375 C-158.61197167 55.8093639 -160.41143344 55.18119843 -162.21044922 54.55175781 C-172.88658496 50.89724457 -183.68731499 47.79729043 -194.75 45.5625 C-195.5339917 45.40322021 -196.3179834 45.24394043 -197.12573242 45.07983398 C-207.18604132 43.15474588 -217.15135882 42.72724834 -227.375 42.8125 C-228.42236328 42.81701172 -229.46972656 42.82152344 -230.54882812 42.82617188 C-233.09511536 42.83779876 -235.6412746 42.85413719 -238.1875 42.875 C-238.1875 42.215 -238.1875 41.555 -238.1875 40.875 C-213.72126671 27.97462245 -182.70967985 33.44541797 -157.4609375 40.98828125 C-155.2895457 41.66224597 -153.12105345 42.34570357 -150.95703125 43.04296875 C-148.3734717 43.8191298 -145.83181957 44.35535558 -143.1875 44.875 C-142.35734375 45.12378906 -141.5271875 45.37257813 -140.671875 45.62890625 C-121.0543543 51.43008737 -104.37193561 46.39309768 -86.75634766 37.28613281 C-79.73913449 33.43140062 -73.15510283 28.85992435 -66.51074219 24.40576172 C-61.91515094 21.37777127 -57.17675632 18.5920051 -52.4375 15.796875 C-50.44616075 14.61930419 -48.46437377 13.42514822 -46.5 12.203125 C-33.51216368 4.12735498 -15.64557129 -5.52196634 0 0 Z " fill="#2A4B94" transform="translate(364.1875,285.125)"/>
<path d="M0 0 C0.556875 0.37125 1.11375 0.7425 1.6875 1.125 C4.79044999 2.29908918 6.06094256 1.31599587 9 0 C8.6845245 9.21188452 7.00611067 17.68111093 4.63867188 26.54736328 C3.37265229 31.40914952 2.22731782 36.30068462 1.0625 41.1875 C0.80581543 42.25782471 0.54913086 43.32814941 0.28466797 44.4309082 C-0.92987287 49.49785653 -2.13542761 54.56665663 -3.3203125 59.640625 C-5.44827401 68.72936297 -7.69251368 77.75476585 -10.26367188 86.72924805 C-11.53887892 91.20917183 -12.60778922 95.68803063 -13.5625 100.25 C-15.19720531 107.51028336 -17.75768166 111.69106637 -24 116 C-27.2578125 116.90625 -27.2578125 116.90625 -31.125 117.5 C-31.84437744 117.61545166 -32.56375488 117.73090332 -33.30493164 117.84985352 C-38.02516462 118.59453745 -42.75838502 119.25355466 -47.48828125 119.93359375 C-49.80473596 120.26789356 -52.12114142 120.6025348 -54.4375 120.9375 C-55.59540039 121.1034668 -56.75330078 121.26943359 -57.94628906 121.44042969 C-65.56439628 122.55941301 -73.05572895 123.94109463 -80.53295898 125.78100586 C-84.10220668 126.65000582 -87.32168535 127.19882782 -91 127 C-90.9375 124.8125 -90.9375 124.8125 -90 122 C-84.23442873 116.75857157 -77.24065069 114.60083448 -70 112 C-68.70772616 111.480675 -67.41595435 110.9600964 -66.125 110.4375 C-57.22628317 107.12634955 -47.75547884 104.89133585 -38.3671875 103.58984375 C-35.36130988 102.84085444 -33.48664856 101.87220509 -31 100 C-29.66266581 97.03426 -29.66266581 97.03426 -28.9375 93.5234375 C-28.78054153 92.88563354 -28.62358307 92.24782959 -28.46186829 91.59069824 C-27.95654383 89.52268805 -27.47854761 87.44935253 -27 85.375 C-26.48308749 83.23475691 -25.95922374 81.09628972 -25.43513489 78.95779419 C-25.09147271 77.55299023 -24.75013773 76.14761484 -24.41117859 74.7416687 C-23.200439 69.73212895 -21.83990091 64.7957983 -20.3125 59.875 C-18.16597862 52.86291125 -16.47221441 45.77151044 -14.81494141 38.62963867 C-13.11446889 31.34257787 -11.15564897 24.16542534 -9 17 C-8.34 17.33 -7.68 17.66 -7 18 C-6.82984375 17.03578125 -6.6596875 16.0715625 -6.484375 15.078125 C-6.12085938 13.18320313 -6.12085938 13.18320313 -5.75 11.25 C-5.51796875 9.99703125 -5.2859375 8.7440625 -5.046875 7.453125 C-3.94973175 3.8341898 -2.88573013 2.36105192 0 0 Z " fill="#274994" transform="translate(390,161)"/>
<path d="M0 0 C1.30501465 0.13535156 2.6100293 0.27070313 3.95458984 0.41015625 C12.3893654 1.29662095 20.79084443 2.35914065 29.18554688 3.56396484 C36.44105868 4.59267185 43.71080166 5.37608561 51 6.125 C61.18862831 7.1850598 71.3479073 8.38866646 81.5 9.75 C82.74918213 9.91234131 83.99836426 10.07468262 85.28540039 10.24194336 C86.44031982 10.40057861 87.59523926 10.55921387 88.78515625 10.72265625 C89.80617432 10.8606665 90.82719238 10.99867676 91.87915039 11.14086914 C94.4375 11.6875 94.4375 11.6875 97.4375 13.6875 C97.3125 16.4375 97.3125 16.4375 96.4375 19.6875 C88.92683245 25.86293777 80.70411956 25.32444397 71.37359619 24.5065918 C65.98383831 23.93326898 60.61769773 23.18598055 55.25 22.4375 C53.56239666 22.20805862 51.87473312 21.9790596 50.18701172 21.75048828 C34.03613394 19.54835989 17.87897844 17.30996245 1.86328125 14.26171875 C-7.8561337 12.41195267 -17.61701546 10.82762044 -27.3815918 9.23706055 C-43.70053714 6.57401003 -43.70053714 6.57401003 -51.5625 4.6875 C-51.2325 3.6975 -50.9025 2.7075 -50.5625 1.6875 C-47.37781539 1.16845301 -44.18947717 0.67615696 -41 0.1875 C-40.12408203 0.04441406 -39.24816406 -0.09867188 -38.34570312 -0.24609375 C-25.52500238 -2.17609171 -12.83626 -1.38348807 0 0 Z " fill="#2A4B94" transform="translate(254.5625,240.3125)"/>
<path d="M0 0 C0.33 0 0.66 0 1 0 C2.125 5.75 2.125 5.75 1 8 C1.66 8 2.32 8 3 8 C3.33 7.01 3.66 6.02 4 5 C4.99 5 5.98 5 7 5 C8 7 8 7 7.3984375 8.91674805 C7.06070312 9.69058838 6.72296875 10.46442871 6.375 11.26171875 C6.00205811 12.12506836 5.62911621 12.98841797 5.24487305 13.87792969 C4.83406494 14.80508789 4.42325684 15.73224609 4 16.6875 C3.58210205 17.64430664 3.1642041 18.60111328 2.73364258 19.58691406 C-0.71781371 27.45219483 -4.2891605 35.25358174 -8 43 C-8.48500977 44.01368652 -8.97001953 45.02737305 -9.46972656 46.07177734 C-12.97098215 53.3854414 -16.48202284 60.69436589 -20 68 C-20.66 68 -21.32 68 -22 68 C-21.67661233 59.53599645 -19.36575665 52.0938616 -16.625 44.125 C-16.18365711 42.82018336 -15.74241535 41.5153325 -15.30126953 40.21044922 C-10.66752501 26.62737003 -5.40229654 13.29343078 0 0 Z " fill="#335294" transform="translate(257,166)"/>
<path d="M0 0 C1.3768783 0.14524238 2.75383152 0.28977628 4.13085938 0.43359375 C7.44220564 0.78215651 10.75263391 1.13769734 14.0625 1.5 C14.0625 1.83 14.0625 2.16 14.0625 2.5 C11.16660348 2.52706445 8.27096205 2.54687029 5.375 2.5625 C4.15006836 2.57506836 4.15006836 2.57506836 2.90039062 2.58789062 C-1.18249084 2.60442051 -4.95401707 2.53035098 -8.9375 1.5 C-8.9375 2.49 -8.9375 3.48 -8.9375 4.5 C-9.5975 4.5 -10.2575 4.5 -10.9375 4.5 C-11.2675 6.15 -11.5975 7.8 -11.9375 9.5 C-17.76893658 10.66157821 -22.66223526 10.22090655 -28.5 9.25 C-29.37172852 9.11231201 -30.24345703 8.97462402 -31.14160156 8.83276367 C-38.46570351 7.64727049 -45.71162579 6.18683487 -52.9375 4.5 C-52.6075 3.51 -52.2775 2.52 -51.9375 1.5 C-48.75281539 0.98095301 -45.56447717 0.48865696 -42.375 0 C-41.49908203 -0.14308594 -40.62316406 -0.28617188 -39.72070312 -0.43359375 C-26.40427671 -2.43821708 -13.30243596 -1.45834113 0 0 Z " fill="#2B4B93" transform="translate(255.9375,240.5)"/>
<path d="M0 0 C0.495 1.485 0.495 1.485 1 3 C0.34 3.66 -0.32 4.32 -1 5 C-1.33 5.99 -1.66 6.98 -2 8 C-2.99 8 -3.98 8 -5 8 C-5 8.66 -5 9.32 -5 10 C-13.07181302 11.88735503 -20.84097656 13.10555444 -29 11 C-29 11.66 -29 12.32 -29 13 C-30.32 12.67 -31.64 12.34 -33 12 C-32.01 11.01 -31.02 10.02 -30 9 C-30.33 8.34 -30.66 7.68 -31 7 C-30.34 7 -29.68 7 -29 7 C-29 6.34 -29 5.68 -29 5 C-30.32 4.67 -31.64 4.34 -33 4 C-32 2 -32 2 -30.3828125 1.40234375 C-24.30106496 0.15021926 -18.25051564 -0.34125606 -12.0625 -0.6875 C-11.22154785 -0.73592041 -10.3805957 -0.78434082 -9.51416016 -0.83422852 C-8.31799072 -0.89114868 -8.31799072 -0.89114868 -7.09765625 -0.94921875 C-6.38101807 -0.98362061 -5.66437988 -1.01802246 -4.92602539 -1.0534668 C-3 -1 -3 -1 0 0 Z " fill="#274893" transform="translate(374,130)"/>
<path d="M0 0 C4.29 0.33 8.58 0.66 13 1 C13 1.66 13 2.32 13 3 C5.25 4.125 5.25 4.125 3 3 C3 3.66 3 4.32 3 5 C-0.30341823 7.20227882 -3.18443389 7.97797336 -7 9 C-7.99 9.33 -8.98 9.66 -10 10 C-11.97606561 10.20010791 -13.95606961 10.36284289 -15.9375 10.5 C-20.13892702 10.78041771 -20.13892702 10.78041771 -24.25390625 11.59375 C-26 12 -26 12 -28 11 C-27.34 9.35 -26.68 7.7 -26 6 C-26.99 6 -27.98 6 -29 6 C-28.67 5.01 -28.34 4.02 -28 3 C-25.14394833 1.89909902 -22.40871041 1.89184215 -19.375 1.9375 C-18.59898437 1.94652344 -17.82296875 1.95554688 -17.0234375 1.96484375 C-16.35570312 1.97644531 -15.68796875 1.98804688 -15 2 C-14.34 2 -13.68 2 -13 2 C-9.66666667 2 -6.33333333 2 -3 2 C-2.67 2.66 -2.34 3.32 -2 4 C-1.34 2.68 -0.68 1.36 0 0 Z " fill="#254894" transform="translate(323,137)"/>
<path d="M0 0 C0.33 0.99 0.66 1.98 1 3 C2.98 2.67 4.96 2.34 7 2 C6.43074044 6.67100548 5.1265333 10.27600007 3.05859375 14.4921875 C2.77146011 15.08299103 2.48432648 15.67379456 2.18849182 16.28250122 C1.27869672 18.15029044 0.35832374 20.01262735 -0.5625 21.875 C-1.18495402 23.14809098 -1.80670596 24.42152548 -2.42773438 25.6953125 C-3.94372618 28.80088819 -5.46924355 31.90167023 -7 35 C-7.66 35 -8.32 35 -9 35 C-8.64007683 26.81782372 -6.5393415 19.60413192 -3.9375 11.875 C-3.56044922 10.72773438 -3.18339844 9.58046875 -2.79492188 8.3984375 C-1.87238675 5.59579916 -0.94061968 2.79660966 0 0 Z " fill="#4C649A" transform="translate(244,199)"/>
<path d="M0 0 C1.02287109 -0.0309375 1.02287109 -0.0309375 2.06640625 -0.0625 C7.13089106 -0.10108655 10.58851078 0.99952232 15.125 3.25 C15.125 3.91 15.125 4.57 15.125 5.25 C7.04331075 7.32001397 -0.69074655 7.49065342 -9 7.375 C-10.86398438 7.36146484 -10.86398438 7.36146484 -12.765625 7.34765625 C-15.80229004 7.32429729 -18.83853853 7.29154283 -21.875 7.25 C-21.875 6.59 -21.875 5.93 -21.875 5.25 C-20.48221983 4.59760842 -19.08560788 3.95339448 -17.6875 3.3125 C-16.91019531 2.95285156 -16.13289062 2.59320313 -15.33203125 2.22265625 C-10.29547295 0.22885177 -5.36793477 0.04013409 0 0 Z " fill="#1D3C81" transform="translate(147.875,320.75)"/>
<path d="M0 0 C2.80967093 1.95455369 3.08749369 3.34997475 3.9375 6.75 C4.38528228 11.62187125 2.80017679 14.0646164 0 18 C-2.0625 20.4375 -2.0625 20.4375 -4 22 C-4.99 22 -5.98 22 -7 22 C-8.125 15.25 -8.125 15.25 -7 13 C-7.66 13 -8.32 13 -9 13 C-8.8125 10.625 -8.8125 10.625 -8 8 C-6.33927151 7.31867549 -4.672233 6.65257873 -3 6 C-1.70339566 3.50965614 -1.70339566 3.50965614 -1 1 C-0.67 0.67 -0.34 0.34 0 0 Z " fill="#214491" transform="translate(288,282)"/>
<path d="M0 0 C0 0.33 0 0.66 0 1 C-5.94 1.495 -5.94 1.495 -12 2 C-12.33 4.31 -12.66 6.62 -13 9 C-21.34525522 9.51917486 -28.91038514 7.95829294 -37 6 C-36.67 5.01 -36.34 4.02 -36 3 C-23.91909071 1.03102649 -12.25713519 -0.50836045 0 0 Z " fill="#47629F" transform="translate(240,239)"/>
<path d="M0 0 C0.88171875 -0.00386719 1.7634375 -0.00773437 2.671875 -0.01171875 C8.71080787 -0.00286401 14.62877415 0.41642849 20.625 1.125 C20.625 1.455 20.625 1.785 20.625 2.125 C19.34302734 2.30675781 19.34302734 2.30675781 18.03515625 2.4921875 C16.93042969 2.65976562 15.82570312 2.82734375 14.6875 3 C13.58535156 3.16242188 12.48320312 3.32484375 11.34765625 3.4921875 C10.44917969 3.70101563 9.55070312 3.90984375 8.625 4.125 C7.3268576 6.3486068 7.3268576 6.3486068 7.625 10.125 C3.85128488 11.4607457 0.76668653 10.84908671 -3.125 10.1875 C-4.29546875 9.99285156 -5.4659375 9.79820312 -6.671875 9.59765625 C-7.56390625 9.44167969 -8.4559375 9.28570312 -9.375 9.125 C-5.7308226 6.6955484 -3.66258728 6.96320425 0.625 7.125 C0.625 6.465 0.625 5.805 0.625 5.125 C-5.63448114 2.99108597 -11.79708127 2.53544485 -18.375 2.125 C-18.375 1.795 -18.375 1.465 -18.375 1.125 C-12.21057328 0.21973454 -6.22603579 -0.02706972 0 0 Z " fill="#354F91" transform="translate(162.375,318.875)"/>
<path d="M0 0 C1.27875 0.144375 2.5575 0.28875 3.875 0.4375 C11.89517881 1.24878976 19.95151518 1.5879316 28 2 C28 2.33 28 2.66 28 3 C26.88625 3.12375 25.7725 3.2475 24.625 3.375 C20.96896323 3.6465813 20.96896323 3.6465813 19 6 C18.01 6.495 18.01 6.495 17 7 C16.34 7.66 15.68 8.32 15 9 C12.375 9.125 12.375 9.125 10 9 C10 9.66 10 10.32 10 11 C6.04 11 2.08 11 -2 11 C-2 10.34 -2 9.68 -2 9 C-0.68 9 0.64 9 2 9 C2.33 7.35 2.66 5.7 3 4 C3.66 4 4.32 4 5 4 C5 3.01 5 2.02 5 1 C4.01 1.33 3.02 1.66 2 2 C1.34 1.34 0.68 0.68 0 0 Z " fill="#204391" transform="translate(242,241)"/>
<path d="M0 0 C0.66 0.33 1.32 0.66 2 1 C1.79375 1.61875 1.5875 2.2375 1.375 2.875 C1.25125 3.57625 1.1275 4.2775 1 5 C1.66 5.66 2.32 6.32 3 7 C3.66 7.66 4.32 8.32 5 9 C7.10820797 8.6814823 7.10820797 8.6814823 9 8 C9 7.34 9 6.68 9 6 C10.32 6.66 11.64 7.32 13 8 C10.71180854 9.50554634 8.41978831 11.00457043 6.125 12.5 C5.47402344 12.92925781 4.82304688 13.35851562 4.15234375 13.80078125 C-0.7734375 17 -0.7734375 17 -3 17 C-4.04449911 13.86650268 -3.93423645 13.01031744 -3 10 C-4.32 9.34 -5.64 8.68 -7 8 C-7 8.66 -7 9.32 -7 10 C-10.465 11.485 -10.465 11.485 -14 13 C-13.67 12.01 -13.34 11.02 -13 10 C-12.34 10 -11.68 10 -11 10 C-11 9.34 -11 8.68 -11 8 C-9.217871 6.55925285 -7.37339724 5.19489351 -5.5 3.875 C-4.4790625 3.15054687 -3.458125 2.42609375 -2.40625 1.6796875 C-1.6121875 1.12539063 -0.818125 0.57109375 0 0 Z " fill="#2F4E95" transform="translate(119,260)"/>
<path d="M0 0 C10.00725176 0.31926326 19.45111577 0.65578724 29 4 C26 6 26 6 23.8125 5.625 C23.214375 5.41875 22.61625 5.2125 22 5 C22.33 6.98 22.66 8.96 23 11 C19.40353756 10.21053264 16.05835859 8.94552254 12.625 7.625 C11.52414063 7.20476562 10.42328125 6.78453125 9.2890625 6.3515625 C6.10452254 5.04295107 3.05776513 3.57969135 0 2 C0 1.34 0 0.68 0 0 Z " fill="#3D5A9B" transform="translate(186,290)"/>
<path d="M0 0 C0.75 2.25 0.75 2.25 1 5 C-1.79017193 8.95274357 -5.50428124 10.47602754 -10 12 C-13.9375 12.1875 -13.9375 12.1875 -17 12 C-17 11.34 -17 10.68 -17 10 C-14.69 10 -12.38 10 -10 10 C-10.33 9.01 -10.66 8.02 -11 7 C-10.1875 3.375 -10.1875 3.375 -9 0 C-5.93109813 -1.53445094 -3.29905734 -0.54984289 0 0 Z " fill="#3A599B" transform="translate(351,253)"/>
<path d="M0 0 C4.8 0.93333333 4.8 0.93333333 6.875 1.625 C10.02438609 2.18077402 12.87500199 1.54086504 16 1 C16.33 3.31 16.66 5.62 17 8 C15.35 7.67 13.7 7.34 12 7 C12 7.66 12 8.32 12 9 C8.86501708 10.85776765 6.62528568 11.20140476 3 11 C3.33 9.68 3.66 8.36 4 7 C3.34 6.67 2.68 6.34 2 6 C2 5.01 2 4.02 2 3 C1.34 3 0.68 3 0 3 C0 2.01 0 1.02 0 0 Z " fill="#224698" transform="translate(343,266)"/>
<path d="M0 0 C0.33 0 0.66 0 1 0 C2.125 5.75 2.125 5.75 1 8 C1.66 8 2.32 8 3 8 C3.33 7.01 3.66 6.02 4 5 C4.99 5 5.98 5 7 5 C7.33 5.66 7.66 6.32 8 7 C6.92664301 9.76674582 5.79739939 12.43194258 4.5625 15.125 C4.22412109 15.87910156 3.88574219 16.63320312 3.53710938 17.41015625 C2.69839399 19.27659331 1.85008607 21.1387143 1 23 C0.87625 22.360625 0.7525 21.72125 0.625 21.0625 C0.41875 20.381875 0.2125 19.70125 0 19 C-0.66 18.67 -1.32 18.34 -2 18 C-1.34 16.68 -0.68 15.36 0 14 C-0.99 14 -1.98 14 -3 14 C-4.37095624 10.30962722 -3.60010967 8.29116165 -2.0625 4.75 C-1.68222656 3.85796875 -1.30195313 2.9659375 -0.91015625 2.046875 C-0.60980469 1.37140625 -0.30945313 0.6959375 0 0 Z " fill="#37569B" transform="translate(257,166)"/>
<path d="M0 0 C0.41894531 0.65484375 0.83789062 1.3096875 1.26953125 1.984375 C2.85790264 4.28147438 2.85790264 4.28147438 5.69921875 4.390625 C6.68535156 4.34421875 7.67148437 4.2978125 8.6875 4.25 C9.68136719 4.21390625 10.67523438 4.1778125 11.69921875 4.140625 C12.45847656 4.09421875 13.21773438 4.0478125 14 4 C13 6 13 6 11.31347656 6.59423828 C10.23791504 6.82989502 10.23791504 6.82989502 9.140625 7.0703125 C8.35429687 7.24433594 7.56796875 7.41835938 6.7578125 7.59765625 C5.93023437 7.77167969 5.10265625 7.94570313 4.25 8.125 C3.43789063 8.30675781 2.62578125 8.48851562 1.7890625 8.67578125 C-2.19641888 9.53908585 -5.89608595 10.25023866 -10 10 C-9.9375 7.8125 -9.9375 7.8125 -9 5 C-6.43314355 2.61372642 -3.61081552 0 0 0 Z " fill="#395495" transform="translate(309,278)"/>
<path d="M0 0 C2.50535913 2.34877419 3.90564909 4.0911787 4.265625 7.55859375 C4.25149142 10.04963675 4.17369194 12.51524028 4 15 C3.01 15.495 3.01 15.495 2 16 C1.34 13.03 0.68 10.06 0 7 C-1.74271938 9.297221 -3.39911152 11.59866729 -5 14 C-6.32 14 -7.64 14 -9 14 C-9.144375 13.2575 -9.28875 12.515 -9.4375 11.75 C-9.90187492 9.47972261 -10.41863569 7.24240521 -11 5 C-10.01 4.67 -9.02 4.34 -8 4 C-7.34 4.33 -6.68 4.66 -6 5 C-2.33039824 3.19693207 -2.33039824 3.19693207 0 0 Z " fill="#36539B" transform="translate(289,276)"/>
<path d="M0 0 C1.16402344 -0.02126953 1.16402344 -0.02126953 2.3515625 -0.04296875 C4.375 0.1875 4.375 0.1875 6.375 2.1875 C4.395 2.8475 2.415 3.5075 0.375 4.1875 C0.375 4.8475 0.375 5.5075 0.375 6.1875 C1.365 6.8475 2.355 7.5075 3.375 8.1875 C-1.70586796 9.03431133 -6.47328377 9.27788099 -11.625 9.1875 C-10.965 8.8575 -10.305 8.5275 -9.625 8.1875 C-9.934375 7.011875 -9.934375 7.011875 -10.25 5.8125 C-10.37375 4.94625 -10.4975 4.08 -10.625 3.1875 C-7.49508255 0.05758255 -4.29776961 0.03593453 0 0 Z " fill="#20408A" transform="translate(179.625,320.8125)"/>
<path d="M0 0 C2.64 0 5.28 0 8 0 C7.33333333 2.66666667 6.66666667 5.33333333 6 8 C3.69 7.67 1.38 7.34 -1 7 C-1 7.66 -1 8.32 -1 9 C-1.66 9 -2.32 9 -3 9 C-3 9.99 -3 10.98 -3 12 C-3.99 11.67 -4.98 11.34 -6 11 C-5.67 10.01 -5.34 9.02 -5 8 C-5.27571139 5.99124558 -5.60235737 3.98821313 -6 2 C-4.68 1.67 -3.36 1.34 -2 1 C-1.67 1.99 -1.34 2.98 -1 4 C-0.67 2.68 -0.34 1.36 0 0 Z " fill="#24428A" transform="translate(273,145)"/>
<path d="M0 0 C-0.33 0.99 -0.66 1.98 -1 3 C-1 2.34 -1 1.68 -1 1 C-2.32 1 -3.64 1 -5 1 C-4.525625 1.5775 -4.05125 2.155 -3.5625 2.75 C-2.0515133 4.92582084 -1.45963849 6.42602448 -1 9 C-4.73486879 9.5745952 -8.21293268 10 -12 10 C-12 7.69 -12 5.38 -12 3 C-13.32 2.67 -14.64 2.34 -16 2 C-10.61972975 0.80911014 -5.54708616 -0.2919519 0 0 Z " fill="#305099" transform="translate(358,130)"/>
<path d="M0 0 C3.63 0 7.26 0 11 0 C9.515 1.98 9.515 1.98 8 4 C8.66 4.33 9.32 4.66 10 5 C10 6.65 10 8.3 10 10 C6.65626525 9.44271087 3.96687001 8.64826111 1 7 C1 5.68 1 4.36 1 3 C0.34 2.67 -0.32 2.34 -1 2 C-0.67 1.34 -0.34 0.68 0 0 Z " fill="#2B4D99" transform="translate(208,295)"/>
<path d="M0 0 C0.99 0.66 1.98 1.32 3 2 C3 2.66 3 3.32 3 4 C4.65 4.33 6.3 4.66 8 5 C8.33 5.99 8.66 6.98 9 8 C7.68 7.67 6.36 7.34 5 7 C5 7.66 5 8.32 5 9 C4.01 9 3.02 9 2 9 C1.67 9.66 1.34 10.32 1 11 C-0.65 9.35 -2.3 7.7 -4 6 C-2.25 1.125 -2.25 1.125 0 0 Z " fill="#234795" transform="translate(123,259)"/>
<path d="M0 0 C0.33 0.66 0.66 1.32 1 2 C2.65 2 4.3 2 6 2 C6.33 3.65 6.66 5.3 7 7 C5.56589632 7.24954005 4.12739928 7.47392642 2.6875 7.6875 C1.88699219 7.81511719 1.08648437 7.94273437 0.26171875 8.07421875 C-2 8 -2 8 -3.79296875 6.51953125 C-4.19128906 6.01808594 -4.58960938 5.51664062 -5 5 C-4.1875 3.0625 -4.1875 3.0625 -3 1 C-2.01 0.67 -1.02 0.34 0 0 Z " fill="#264898" transform="translate(314,275)"/>
<path d="M0 0 C4.8333472 -0.08333357 9.23692563 0.04738513 14 1 C14 1.66 14 2.32 14 3 C15.32 3.33 16.64 3.66 18 4 C14.22882755 6.51411496 12.6108374 6.07020207 8.296875 5.4921875 C5.22605039 4.83415365 2.69390187 3.58871136 0 2 C0 1.34 0 0.68 0 0 Z " fill="#244087" transform="translate(186,290)"/>
<path d="M0 0 C-1.32 1.32 -2.64 2.64 -4 4 C-3.34 4.33 -2.68 4.66 -2 5 C-3.916588 5.02712153 -5.8332873 5.04645097 -7.75 5.0625 C-9.35101563 5.07990234 -9.35101563 5.07990234 -10.984375 5.09765625 C-13.53368501 5.01510087 -15.57933591 4.74617558 -18 4 C-17.67 3.01 -17.34 2.02 -17 1 C-11.27959989 0.1679418 -5.77759884 -0.12036664 0 0 Z " fill="#213F83" transform="translate(221,241)"/>
<path d="M0 0 C4.62 0.66 9.24 1.32 14 2 C14 2.33 14 2.66 14 3 C11.69 3.33 9.38 3.66 7 4 C7 6.64 7 9.28 7 12 C5.125 11.6875 5.125 11.6875 3 11 C1 8 1 8 1.375 5.3125 C1.58125 4.549375 1.7875 3.78625 2 3 C1.34 2.67 0.68 2.34 0 2 C0 1.34 0 0.68 0 0 Z " fill="#20428D" transform="translate(187,323)"/>
<path d="M0 0 C0 0.33 0 0.66 0 1 C-4.62 1 -9.24 1 -14 1 C-14 1.66 -14 2.32 -14 3 C-20.82342281 6.41171141 -30.58609568 5.10313004 -38 5 C-38 4.67 -38 4.34 -38 4 C-25.25747304 1.50231193 -13.02000693 -0.74047433 0 0 Z " fill="#5974A4" transform="translate(396,125)"/>
<path d="M0 0 C0.33 0.99 0.66 1.98 1 3 C1.99 3.33 2.98 3.66 4 4 C2.25 8.875 2.25 8.875 0 10 C-0.57876361 12.31505445 -1.06480221 14.65371627 -1.5 17 C-1.93519779 19.34628373 -2.42123639 21.68494555 -3 24 C-3.66 24.33 -4.32 24.66 -5 25 C-4.59128562 16.31481952 -2.38135792 8.30706251 0 0 Z " fill="#426196" transform="translate(387,155)"/>
<path d="M0 0 C2.05078125 0.03255208 4.1015625 0.06510417 6.15234375 0.09765625 C6.74967194 2.86029914 7.15234375 5.25798394 7.15234375 8.09765625 C5.50234375 8.09765625 3.85234375 8.09765625 2.15234375 8.09765625 C2.15234375 7.43765625 2.15234375 6.77765625 2.15234375 6.09765625 C-0.81765625 5.60265625 -0.81765625 5.60265625 -3.84765625 5.09765625 C-3.18765625 4.76765625 -2.52765625 4.43765625 -1.84765625 4.09765625 C-2.17765625 3.10765625 -2.50765625 2.11765625 -2.84765625 1.09765625 C-1.84765625 0.09765625 -1.84765625 0.09765625 0 0 Z " fill="#204594" transform="translate(232.84765625,302.90234375)"/>
<path d="M0 0 C2.97 0.33 5.94 0.66 9 1 C8.01 1.66 7.02 2.32 6 3 C6 3.66 6 4.32 6 5 C4.35 5 2.7 5 1 5 C1 5.99 1 6.98 1 8 C2.32 8.66 3.64 9.32 5 10 C5 10.66 5 11.32 5 12 C2.36 11.34 -0.28 10.68 -3 10 C-3.33 8.68 -3.66 7.36 -4 6 C-2.625 4.4375 -2.625 4.4375 -1 3 C-0.67 2.01 -0.34 1.02 0 0 Z " fill="#3A589B" transform="translate(230,299)"/>
<path d="M0 0 C0 0.33 0 0.66 0 1 C-2.97 1 -5.94 1 -9 1 C-9 2.32 -9 3.64 -9 5 C-9.99 5.33 -10.98 5.66 -12 6 C-12 5.01 -12 4.02 -12 3 C-13.6254308 3.14095064 -15.25034051 3.28792087 -16.875 3.4375 C-17.77992188 3.51871094 -18.68484375 3.59992188 -19.6171875 3.68359375 C-22.01110861 3.86989285 -22.01110861 3.86989285 -24 5 C-24 4.34 -24 3.68 -24 3 C-24.66 2.67 -25.32 2.34 -26 2 C-23.16874517 1.46460245 -20.33602289 0.94647276 -17.5 0.4375 C-16.70851563 0.28603516 -15.91703125 0.13457031 -15.1015625 -0.02148438 C-9.75274882 -0.96410318 -5.3559396 -0.92746202 0 0 Z " fill="#48619D" transform="translate(332,136)"/>
<path d="M0 0 C0.33 0.99 0.66 1.98 1 3 C3.50447516 4.21869929 3.50447516 4.21869929 6 5 C5.67 5.66 5.34 6.32 5 7 C2.58179317 6.54884201 0.16567137 6.08938045 -2.25 5.625 C-2.93191406 5.49867188 -3.61382812 5.37234375 -4.31640625 5.2421875 C-7.82484976 4.56093633 -10.91039673 3.83146585 -14 2 C-4.57142857 0 -4.57142857 0 0 0 Z " fill="#445A97" transform="translate(185,328)"/>
<path d="M0 0 C2.85075158 1.98313153 3.07766501 3.33839755 3.875 6.8125 C4.27712971 10.91725797 3.19695097 13.48487844 1 17 C0.34 16.34 -0.32 15.68 -1 15 C-1 13.68 -1 12.36 -1 11 C-0.01 11 0.98 11 2 11 C0.35 9.02 -1.3 7.04 -3 5 C-2.01 3.35 -1.02 1.7 0 0 Z " fill="#224A96" transform="translate(288,282)"/>
<path d="M0 0 C1.62600941 0.0870005 3.25089678 0.1951781 4.875 0.3125 C5.77992188 0.37050781 6.68484375 0.42851562 7.6171875 0.48828125 C10 1 10 1 12 4 C10.68 4.33 9.36 4.66 8 5 C7.67 4.01 7.34 3.02 7 2 C5.02 2.99 5.02 2.99 3 4 C3 4.99 3 5.98 3 7 C2.34 7 1.68 7 1 7 C1 7.99 1 8.98 1 10 C-0.32 10 -1.64 10 -3 10 C-3 9.34 -3 8.68 -3 8 C-2.34 8 -1.68 8 -1 8 C-0.67 5.36 -0.34 2.72 0 0 Z " fill="#244593" transform="translate(234,266)"/>
<path d="M0 0 C1.20628008 2.33214148 2.1654738 4.49642139 3 7 C1.71034824 8.37562854 0.37310707 9.70766393 -1 11 C-1.66 11 -2.32 11 -3 11 C-3.66 12.65 -4.32 14.3 -5 16 C-5.66 16 -6.32 16 -7 16 C-6.54636829 14.41531323 -6.08688548 12.83230076 -5.625 11.25 C-5.36976563 10.36828125 -5.11453125 9.4865625 -4.8515625 8.578125 C-4.0790066 6.23919428 -3.16374324 4.16557438 -2 2 C-1.34 2 -0.68 2 0 2 C0 1.34 0 0.68 0 0 Z " fill="#31559B" transform="translate(266,147)"/>
<path d="M0 0 C5.45454545 0.45454545 5.45454545 0.45454545 8 3 C8.125 6.125 8.125 6.125 8 9 C6.68 9 5.36 9 4 9 C3.67 8.01 3.34 7.02 3 6 C2.01 5.67 1.02 5.34 0 5 C0 4.34 0 3.68 0 3 C-0.66 2.67 -1.32 2.34 -2 2 C-1.34 1.34 -0.68 0.68 0 0 Z " fill="#385A9C" transform="translate(358,284)"/>
<path d="M0 0 C2.31 0 4.62 0 7 0 C6.401875 0.28875 5.80375 0.5775 5.1875 0.875 C0.44658456 3.31318508 -0.76124597 5.23127356 -2.6875 10.125 C-3.12449219 11.22070312 -3.56148438 12.31640625 -4.01171875 13.4453125 C-4.33785156 14.28835937 -4.66398437 15.13140625 -5 16 C-5.66 16 -6.32 16 -7 16 C-7.33 13.36 -7.66 10.72 -8 8 C-7.34 7.67 -6.68 7.34 -6 7 C-6 7.66 -6 8.32 -6 9 C-5.34 9 -4.68 9 -4 9 C-4 7.68 -4 6.36 -4 5 C-3.34 5 -2.68 5 -2 5 C-2 4.01 -2 3.02 -2 2 C-1.34 2 -0.68 2 0 2 C0 1.34 0 0.68 0 0 Z " fill="#3B5894" transform="translate(272,152)"/>
<path d="M0 0 C0 0.66 0 1.32 0 2 C-2.97788016 2.50893577 -5.9569254 3.00730636 -8.9375 3.5 C-10.18370117 3.71462891 -10.18370117 3.71462891 -11.45507812 3.93359375 C-17.04603373 4.84729077 -22.33493578 5.13719631 -28 5 C-28 4.34 -28 3.68 -28 3 C-26.5459375 3.0309375 -26.5459375 3.0309375 -25.0625 3.0625 C-22.12534105 3.35618499 -22.12534105 3.35618499 -21 2 C-19.04583843 1.79000055 -17.08599701 1.63167366 -15.125 1.5 C-9.91044456 1.14817457 -5.23832829 -0.1164073 0 0 Z " fill="#576DA1" transform="translate(322,145)"/>
<path d="M0 0 C1.65 0 3.3 0 5 0 C5 2.31 5 4.62 5 7 C6.32 6.34 7.64 5.68 9 5 C9.33 5.33 9.66 5.66 10 6 C11.99958364 6.04080783 14.00045254 6.04254356 16 6 C16.33 6.66 16.66 7.32 17 8 C8.57142857 9.28571429 8.57142857 9.28571429 4 8 C4 8.66 4 9.32 4 10 C2.68 9.67 1.36 9.34 0 9 C0.99 8.01 1.98 7.02 3 6 C2.67 5.34 2.34 4.68 2 4 C2.66 4 3.32 4 4 4 C4 3.34 4 2.68 4 2 C2.68 1.67 1.36 1.34 0 1 C0 0.67 0 0.34 0 0 Z " fill="#214085" transform="translate(341,133)"/>
<path d="M0 0 C0 0.66 0 1.32 0 2 C-2.31 1.67 -4.62 1.34 -7 1 C-7 0.34 -7 -0.32 -7 -1 C-7.99 -0.34 -8.98 0.32 -10 1 C-12.04296875 1.1953125 -12.04296875 1.1953125 -14.1875 1.125 C-16.0746875 1.063125 -16.0746875 1.063125 -18 1 C-16 -2 -16 -2 -14.375 -2.75 C-9.38891794 -3.27485074 -4.30714027 -2.69196267 0 0 Z " fill="#1B4390" transform="translate(163,324)"/>
<path d="M0 0 C8.02078543 1.57089116 16.01144087 3.27336618 24 5 C23.360625 5.12375 22.72125 5.2475 22.0625 5.375 C21.381875 5.58125 20.70125 5.7875 20 6 C19.67 6.66 19.34 7.32 19 8 C18.01 7.34 17.02 6.68 16 6 C13.84463824 5.60003596 11.67492685 5.2743151 9.5 5 C3.33333333 4.22222222 3.33333333 4.22222222 0 2 C0 1.34 0 0.68 0 0 Z " fill="#475B94" transform="translate(228,262)"/>
<path d="M0 0 C2.31 0 4.62 0 7 0 C7.125 2.375 7.125 2.375 7 5 C6.34 5.66 5.68 6.32 5 7 C1.375 6.625 1.375 6.625 -2 6 C-1.34 4.02 -0.68 2.04 0 0 Z " fill="#214595" transform="translate(286,142)"/>
<path d="M0 0 C1.65 0 3.3 0 5 0 C5.15639125 5.06316683 4.62766071 9.50398438 3.5 14.4375 C3.2215625 15.67371094 2.943125 16.90992188 2.65625 18.18359375 C2.4396875 19.11300781 2.223125 20.04242188 2 21 C1.67 21 1.34 21 1 21 C0.87401575 13.44094488 0.87401575 13.44094488 1.5625 11.03125 C2.11023332 8.48820245 1.69038045 6.76152179 1.0625 4.25 C0.86785156 3.45078125 0.67320312 2.6515625 0.47265625 1.828125 C0.23869141 0.92320312 0.23869141 0.92320312 0 0 Z " fill="#546AA5" transform="translate(400,136)"/>
<path d="M0 0 C0.33 0.99 0.66 1.98 1 3 C6.61 3 12.22 3 18 3 C18 3.66 18 4.32 18 5 C9.75 5 1.5 5 -7 5 C-7 4.34 -7 3.68 -7 3 C-4.69 2.01 -2.38 1.02 0 0 Z " fill="#435685" transform="translate(133,323)"/>
<path d="M0 0 C2 3 2 3 1.5 5.875 C-0.40772811 9.84943357 -2.48090483 11.39892966 -6 14 C-6.99 13.34 -7.98 12.68 -9 12 C-7.35 10.02 -5.7 8.04 -4 6 C-3.34 6.33 -2.68 6.66 -2 7 C-1.34 4.69 -0.68 2.38 0 0 Z " fill="#4C659E" transform="translate(373,262)"/>
<path d="M0 0 C0 0.99 0 1.98 0 3 C-0.66 3 -1.32 3 -2 3 C-1.67 3.99 -1.34 4.98 -1 6 C-2.3125 7.5 -2.3125 7.5 -4 9 C-4.99 9 -5.98 9 -7 9 C-6.65171318 3.60155422 -6.65171318 3.60155422 -6 1 C-3.57219651 -0.95790604 -2.83012171 -1.41506085 0 0 Z " fill="#2E4C93" transform="translate(248,204)"/>
<path d="M0 0 C2.05078125 0.03255208 4.1015625 0.06510417 6.15234375 0.09765625 C5.82234375 2.07765625 5.49234375 4.05765625 5.15234375 6.09765625 C2.51234375 6.09765625 -0.12765625 6.09765625 -2.84765625 6.09765625 C-2.89037725 4.4315372 -2.88829457 2.7638274 -2.84765625 1.09765625 C-1.84765625 0.09765625 -1.84765625 0.09765625 0 0 Z " fill="#214799" transform="translate(274.84765625,144.90234375)"/>
<path d="M0 0 C0 0.66 0 1.32 0 2 C-1.32 2.33 -2.64 2.66 -4 3 C-4.33 4.32 -4.66 5.64 -5 7 C-7.31 6.34 -9.62 5.68 -12 5 C-11 2 -11 2 -8.8125 0.8125 C-5.74609689 -0.07334979 -3.17561845 -0.14770318 0 0 Z " fill="#355492" transform="translate(327,272)"/>
<path d="M0 0 C0 0.66 0 1.32 0 2 C0.99 2.33 1.98 2.66 3 3 C2.67 3.66 2.34 4.32 2 5 C-1.3 5 -4.6 5 -8 5 C-7.67 3.68 -7.34 2.36 -7 1 C-2.25 0 -2.25 0 0 0 Z " fill="#2B4A8E" transform="translate(142,321)"/>
<path d="M0 0 C0.73605469 0.09990234 1.47210938 0.19980469 2.23046875 0.30273438 C4.02974077 0.54808965 5.82754131 0.80419537 7.625 1.0625 C7.625 1.7225 7.625 2.3825 7.625 3.0625 C0.09780398 3.31765919 -6.96351545 2.34547723 -14.375 1.0625 C-14.375 0.7325 -14.375 0.4025 -14.375 0.0625 C-9.30046589 -1.08207157 -5.06644304 -0.73752019 0 0 Z " fill="#5F76A6" transform="translate(249.375,310.9375)"/>
<path d="M0 0 C3.24271506 0.5590888 4.93057424 1.4132178 7 4 C7 4.66 7 5.32 7 6 C6.34 6.66 5.68 7.32 5 8 C5.99 8.33 6.98 8.66 8 9 C5.29120665 10.35439668 2.99066732 10.06501451 0 10 C0.66 9.67 1.32 9.34 2 9 C1.855625 8.443125 1.71125 7.88625 1.5625 7.3125 C0.97230872 4.88615805 0.476571 2.45093655 0 0 Z " fill="#3C5AA0" transform="translate(263,302)"/>
<path d="M0 0 C-7.22124213 -0.41830366 -14.04567778 -0.95461111 -21 -3 C-21 -3.33 -21 -3.66 -21 -4 C-13.49277854 -5.63200467 -6.05353656 -5.06548806 0 0 Z " fill="#49649A" transform="translate(252,280)"/>
<path d="M0 0 C0.66 0 1.32 0 2 0 C1.59060025 6.76215448 0.43046191 12.67162748 -2 19 C-2.66 19 -3.32 19 -4 19 C-2.89309248 12.59406714 -1.66054831 6.28636144 0 0 Z " fill="#4964A0" transform="translate(380,181)"/>
<path d="M0 0 C0.66 1.32 1.32 2.64 2 4 C1.01 4.33 0.02 4.66 -1 5 C-1 4.01 -1 3.02 -1 2 C-1.66 2 -2.32 2 -3 2 C-3.268125 2.598125 -3.53625 3.19625 -3.8125 3.8125 C-4.98493467 5.97224808 -6.19369282 7.35790256 -8 9 C-7.01 9.33 -6.02 9.66 -5 10 C-6.65 10 -8.3 10 -10 10 C-9.9375 7.8125 -9.9375 7.8125 -9 5 C-6.43314355 2.61372642 -3.61081552 0 0 0 Z " fill="#6172A9" transform="translate(309,278)"/>
<path d="M0 0 C1.98 0 3.96 0 6 0 C6.625 2.3125 6.625 2.3125 7 5 C6.01 6.485 6.01 6.485 5 8 C4.01 8 3.02 8 2 8 C2 6.02 2 4.04 2 2 C1.34 2 0.68 2 0 2 C0 1.34 0 0.68 0 0 Z " fill="#324881" transform="translate(345,253)"/>
<path d="M0 0 C0.8353125 0.556875 0.8353125 0.556875 1.6875 1.125 C4.05716353 2.29515863 4.05716353 2.29515863 6.75 1.125 C7.4925 0.75375 8.235 0.3825 9 0 C9 1.65 9 3.3 9 5 C6.69 4.67 4.38 4.34 2 4 C2 4.66 2 5.32 2 6 C1.01 6.33 0.02 6.66 -1 7 C-1 6.34 -1 5.68 -1 5 C-1.99 5.33 -2.98 5.66 -4 6 C-3.0022242 3.00667261 -2.2477975 2.05233685 0 0 Z " fill="#1E408F" transform="translate(390,161)"/>
<path d="M0 0 C2.375 0.75 2.375 0.75 4.375 1.75 C4.375 4.06 4.375 6.37 4.375 8.75 C3.385 8.75 2.395 8.75 1.375 8.75 C1.045 7.1 0.715 5.45 0.375 3.75 C-1.935 3.42 -4.245 3.09 -6.625 2.75 C-4.24919631 0.55018177 -3.30267199 -0.31454019 0 0 Z " fill="#455E97" transform="translate(389.625,135.25)"/>
<path d="M0 0 C2.50535913 2.34877419 3.90564909 4.0911787 4.265625 7.55859375 C4.25149142 10.04963675 4.17369194 12.51524028 4 15 C3.01 15.495 3.01 15.495 2 16 C1.86722656 15.24074219 1.73445313 14.48148437 1.59765625 13.69921875 C1.42105469 12.70535156 1.24445313 11.71148437 1.0625 10.6875 C0.88847656 9.70136719 0.71445312 8.71523438 0.53515625 7.69921875 C0.04253153 4.91810787 0.04253153 4.91810787 -1 2 C-0.67 1.34 -0.34 0.68 0 0 Z " fill="#5A70AA" transform="translate(289,276)"/>
<path d="M0 0 C0.99 0.33 1.98 0.66 3 1 C3 1.66 3 2.32 3 3 C5.475 3.99 5.475 3.99 8 5 C7.67 5.66 7.34 6.32 7 7 C2.38 6.01 -2.24 5.02 -7 4 C-7 3.67 -7 3.34 -7 3 C-5.5459375 2.814375 -5.5459375 2.814375 -4.0625 2.625 C-2.5465625 2.315625 -2.5465625 2.315625 -1 2 C-0.67 1.34 -0.34 0.68 0 0 Z " fill="#4A609D" transform="translate(190,254)"/>
<path d="M0 0 C1.36125 0.37125 1.36125 0.37125 2.75 0.75 C-0.69450737 3.04633824 -3.18812283 3.29016485 -7.25 3.75 C-4.05 -0.31153846 -4.05 -0.31153846 0 0 Z M-1.25 2.75 C0.4 4.07 2.05 5.39 3.75 6.75 C1.44 7.08 -0.87 7.41 -3.25 7.75 C-2.59 6.1 -1.93 4.45 -1.25 2.75 Z " fill="#234598" transform="translate(179.25,322.25)"/>
<path d="M0 0 C3.63 0.66 7.26 1.32 11 2 C9.02 2.99 9.02 2.99 7 4 C6.34 3.67 5.68 3.34 5 3 C5 3.66 5 4.32 5 5 C4.34 5 3.68 5 3 5 C3 5.66 3 6.32 3 7 C2.01 6.67 1.02 6.34 0 6 C0 4.02 0 2.04 0 0 Z " fill="#3F5B9C" transform="translate(219,296)"/>
<path d="M0 0 C2.51012963 2.51012963 2.29721609 3.46805237 2.3125 6.9375 C2.32925781 7.81277344 2.34601563 8.68804687 2.36328125 9.58984375 C1.93939398 12.40208512 1.18325915 13.25454479 -1 15 C-1.66 14.67 -2.32 14.34 -3 14 C-2.01 9.38 -1.02 4.76 0 0 Z " fill="#4D669E" transform="translate(365,238)"/>
<path d="M0 0 C9.41002278 -0.18451025 9.41002278 -0.18451025 14 1 C14 1.33 14 1.66 14 2 C8.39 2.66 2.78 3.32 -3 4 C-3 3.34 -3 2.68 -3 2 C-2.01 2 -1.02 2 0 2 C0 1.34 0 0.68 0 0 Z " fill="#42578D" transform="translate(327,279)"/>
<path d="M0 0 C0 1.65 0 3.3 0 5 C-3.50935186 5 -6.56484998 4.62457273 -10 4 C-4.7826087 0 -4.7826087 0 0 0 Z " fill="#395694" transform="translate(272,327)"/>
<path d="M0 0 C0.98226562 0.09087891 0.98226562 0.09087891 1.984375 0.18359375 C8.98663453 0.82645656 15.99184389 1.42515997 23 2 C23 2.33 23 2.66 23 3 C20.10391407 3.05413245 17.20884805 3.09373641 14.3125 3.125 C13.08756836 3.15013672 13.08756836 3.15013672 11.83789062 3.17578125 C7.42907071 3.2114802 4.01268424 3.07580814 0 1 C0 0.67 0 0.34 0 0 Z " fill="#7D8EB9" transform="translate(247,240)"/>
<path d="M0 0 C0.66 0 1.32 0 2 0 C2 0.66 2 1.32 2 2 C2.66 2.33 3.32 2.66 4 3 C-1.18082051 6.34594658 -4.84777564 7.56826496 -11 8 C-9 5 -9 5 -6.8359375 4.48828125 C-5.61777344 4.40126953 -5.61777344 4.40126953 -4.375 4.3125 C-3.14910156 4.21388672 -3.14910156 4.21388672 -1.8984375 4.11328125 C-1.27195312 4.07589844 -0.64546875 4.03851563 0 4 C0 2.68 0 1.36 0 0 Z " fill="#2D468A" transform="translate(277,303)"/>
<path d="M0 0 C0 0.66 0 1.32 0 2 C1.65 2.33 3.3 2.66 5 3 C5 3.33 5 3.66 5 4 C3.04196493 4.05389087 1.08351091 4.09274217 -0.875 4.125 C-1.96554687 4.14820313 -3.05609375 4.17140625 -4.1796875 4.1953125 C-7 4 -7 4 -9 2 C-2.25 0 -2.25 0 0 0 Z " fill="#3C5591" transform="translate(272,278)"/>
<path d="M0 0 C0.99 1.485 0.99 1.485 2 3 C1.34 3 0.68 3 0 3 C0 2.01 0 1.02 0 0 Z M-2 2 C0 4 0 4 0 8 C-4.43076923 10.09230769 -4.43076923 10.09230769 -7.3125 9.625 C-7.869375 9.41875 -8.42625 9.2125 -9 9 C-7.35 8.67 -5.7 8.34 -4 8 C-3.855625 7.195625 -3.71125 6.39125 -3.5625 5.5625 C-3 3 -3 3 -2 2 Z " fill="#21428E" transform="translate(272,245)"/>
<path d="M0 0 C0.99 0.33 1.98 0.66 3 1 C2.67 1.66 2.34 2.32 2 3 C3.32 3 4.64 3 6 3 C6 2.34 6 1.68 6 1 C7.65 1 9.3 1 11 1 C10.67 1.66 10.34 2.32 10 3 C7.1640625 3.703125 7.1640625 3.703125 3.625 4.25 C1.88089844 4.53617188 1.88089844 4.53617188 0.1015625 4.828125 C-3 5 -3 5 -6 3 C-4.02 2.67 -2.04 2.34 0 2 C0 1.34 0 0.68 0 0 Z " fill="#405B94" transform="translate(339,140)"/>
<path d="M0 0 C1.33332095 2.6666419 0.67102033 4.16680303 0 7 C-3.83887763 8.48320272 -6.06204091 9.22419163 -10 8 C-9.16855469 7.51080078 -9.16855469 7.51080078 -8.3203125 7.01171875 C-7.23363281 6.35623047 -7.23363281 6.35623047 -6.125 5.6875 C-5.40570313 5.25824219 -4.68640625 4.82898438 -3.9453125 4.38671875 C-1.73153667 2.98247625 -1.73153667 2.98247625 0 0 Z " fill="#4C6597" transform="translate(279,290)"/>
<path d="M0 0 C2.31 0 4.62 0 7 0 C6.01 0.495 6.01 0.495 5 1 C4.855625 1.66 4.71125 2.32 4.5625 3 C4.376875 3.66 4.19125 4.32 4 5 C3.01 5.33 2.02 5.66 1 6 C0.34 5.67 -0.32 5.34 -1 5 C-0.67 3.35 -0.34 1.7 0 0 Z " fill="#1E428F" transform="translate(337,252)"/>
<path d="M0 0 C-0.33 1.32 -0.66 2.64 -1 4 C-6.41538462 5.23076923 -6.41538462 5.23076923 -9.375 4.0625 C-9.91125 3.711875 -10.4475 3.36125 -11 3 C-7.14243493 0.84694043 -4.44870215 -0.39253254 0 0 Z " fill="#345090" transform="translate(146,248)"/>
<path d="M0 0 C1.03253906 0.01353516 1.03253906 0.01353516 2.0859375 0.02734375 C3.76577838 0.05067487 5.44543746 0.08653674 7.125 0.125 C7.125 0.455 7.125 0.785 7.125 1.125 C2.505 1.125 -2.115 1.125 -6.875 1.125 C-6.875 1.785 -6.875 2.445 -6.875 3.125 C-9.25 3.75 -9.25 3.75 -11.875 4.125 C-12.535 3.465 -13.195 2.805 -13.875 2.125 C-9.17038677 0.26367327 -4.9992304 -0.1259496 0 0 Z " fill="#7D91B8" transform="translate(388.875,124.875)"/>
<path d="M0 0 C5.13503344 0.64187918 9.9943454 1.68272247 15 3 C12 5 12 5 8.625 4.75 C5.51359378 4.10626078 2.88077146 3.30944157 0 2 C0 1.34 0 0.68 0 0 Z " fill="#51699A" transform="translate(200,291)"/>
<path d="M0 0 C0 1.66666667 0 3.33333333 0 5 C-0.99 5 -1.98 5 -3 5 C-3 5.66 -3 6.32 -3 7 C-6.465 8.485 -6.465 8.485 -10 10 C-9.67 9.01 -9.34 8.02 -9 7 C-8.34 7 -7.68 7 -7 7 C-7 6.34 -7 5.68 -7 5 C-5.46875 3.7109375 -5.46875 3.7109375 -3.5 2.375 C-2.8503125 1.92898438 -2.200625 1.48296875 -1.53125 1.0234375 C-0.77328125 0.51683594 -0.77328125 0.51683594 0 0 Z " fill="#4A6295" transform="translate(115,263)"/>
<path d="M0 0 C5.75 1.875 5.75 1.875 8 3 C8 3.66 8 4.32 8 5 C6.9275 4.79375 5.855 4.5875 4.75 4.375 C1.12380904 4.0123809 -0.08291076 4.01637931 -3 6 C-2.01 4.02 -1.02 2.04 0 0 Z " fill="#3D5897" transform="translate(220,258)"/>
<path d="M0 0 C2.67857172 0.36196915 4.60980914 0.73987276 6.875 2.25 C8 4 8 4 7.6875 6.6875 C7.460625 7.450625 7.23375 8.21375 7 9 C6.34 9 5.68 9 5 9 C3.9375 7.1875 3.9375 7.1875 3 5 C3.33 4.01 3.66 3.02 4 2 C2.68 1.34 1.36 0.68 0 0 Z " fill="#204592" transform="translate(135,252)"/>
<path d="M0 0 C0.66 0.33 1.32 0.66 2 1 C1.01 3.31 0.02 5.62 -1 8 C-1.66 8 -2.32 8 -3 8 C-3 7.01 -3 6.02 -3 5 C-4.32 5.33 -5.64 5.66 -7 6 C-4.74259377 3.66475218 -2.7194239 1.81294927 0 0 Z " fill="#405F99" transform="translate(311,301)"/>
<path d="M0 0 C2.76276177 0.52268466 5.3260876 1.10869587 8 2 C8 2.66 8 3.32 8 4 C7.01 4 6.02 4 5 4 C5 4.66 5 5.32 5 6 C4.01 6 3.02 6 2 6 C2 5.01 2 4.02 2 3 C1.34 3 0.68 3 0 3 C0 2.01 0 1.02 0 0 Z " fill="#1B4288" transform="translate(343,266)"/>
<path d="M0 0 C-0.66 1.98 -1.32 3.96 -2 6 C-3.32 6 -4.64 6 -6 6 C-6 5.34 -6 4.68 -6 4 C-6.66 3.67 -7.32 3.34 -8 3 C-7.01 3 -6.02 3 -5 3 C-5 2.34 -5 1.68 -5 1 C-3 0 -3 0 0 0 Z " fill="#23438F" transform="translate(211,258)"/>
<path d="M0 0 C2 3 2 3 3 6 C0.69 6.33 -1.62 6.66 -4 7 C-4 5.35 -4 3.7 -4 2 C-2.68 1.34 -1.36 0.68 0 0 Z " fill="#1E4494" transform="translate(213,332)"/>
<path d="M0 0 C-2.90572328 2.47524576 -5.15822926 3.69670231 -9 4 C-9.66 3.34 -10.32 2.68 -11 2 C-7.06425135 -0.62383243 -4.54354105 -1.51451368 0 0 Z " fill="#3A598E" transform="translate(348,302)"/>
<path d="M0 0 C0.99 0.495 0.99 0.495 2 1 C2.625 3.5625 2.625 3.5625 3 6 C5.97 6.495 5.97 6.495 9 7 C6 9 6 9 3.375 8.6875 C1 8 1 8 0 7 C-0.04092937 4.66702567 -0.04241723 2.33294775 0 0 Z " fill="#5B6C98" transform="translate(91,284)"/>
<path d="M0 0 C0 1.98 0 3.96 0 6 C-1.65 6 -3.3 6 -5 6 C-5 4.35 -5 2.7 -5 1 C-2 0 -2 0 0 0 Z " fill="#2E488C" transform="translate(244,214)"/>
<path d="M0 0 C2.64 0 5.28 0 8 0 C8 1.65 8 3.3 8 5 C4.5625 4.1875 4.5625 4.1875 1 3 C0.67 2.01 0.34 1.02 0 0 Z " fill="#556B97" transform="translate(186,290)"/>
<path d="M0 0 C6.93 0.495 6.93 0.495 14 1 C14 1.33 14 1.66 14 2 C12.2300132 2.19532961 10.45895721 2.38098882 8.6875 2.5625 C7.70136719 2.66691406 6.71523438 2.77132812 5.69921875 2.87890625 C3 3 3 3 0 2 C0 1.34 0 0.68 0 0 Z " fill="#6277AB" transform="translate(329,250)"/>
<path d="M0 0 C2.43929746 1.92576115 4.80090595 3.80090595 7 6 C3.04 6 -0.92 6 -5 6 C-5 5.34 -5 4.68 -5 4 C-3.68 4 -2.36 4 -1 4 C-0.67 2.68 -0.34 1.36 0 0 Z " fill="#203F82" transform="translate(245,246)"/>
<path d="M0 0 C3.8063457 0.67170806 7.35206816 1.72746564 11 3 C11 3.33 11 3.66 11 4 C6.71 4 2.42 4 -2 4 C-0.68 3.67 0.64 3.34 2 3 C2 2.34 2 1.68 2 1 C1.34 0.67 0.68 0.34 0 0 Z " fill="#465E9A" transform="translate(321,260)"/>
<path d="M0 0 C2.64 0 5.28 0 8 0 C7.67 1.32 7.34 2.64 7 4 C4.36 3.67 1.72 3.34 -1 3 C-0.67 2.01 -0.34 1.02 0 0 Z " fill="#647BA5" transform="translate(204,242)"/>
<path d="M0 0 C1.32 0 2.64 0 4 0 C3.01 2.97 2.02 5.94 1 9 C0.67 7.68 0.34 6.36 0 5 C-0.66 4.67 -1.32 4.34 -2 4 C-1.34 2.68 -0.68 1.36 0 0 Z " fill="#4E6AA3" transform="translate(257,180)"/>
<path d="M0 0 C4.95 0.33 9.9 0.66 15 1 C15 1.33 15 1.66 15 2 C13.06325815 2.19517554 11.12555991 2.38087873 9.1875 2.5625 C8.10855469 2.66691406 7.02960938 2.77132813 5.91796875 2.87890625 C3 3 3 3 0 2 C0 1.34 0 0.68 0 0 Z " fill="#6D83AF" transform="translate(168,319)"/>
<path d="M0 0 C0.33 0.66 0.66 1.32 1 2 C1.99 1.67 2.98 1.34 4 1 C4 1.66 4 2.32 4 3 C4.66 3.66 5.32 4.32 6 5 C2.04 4.67 -1.92 4.34 -6 4 C-4 2.66666667 -2 1.33333333 0 0 Z " fill="#5972A9" transform="translate(310,258)"/>
<path d="M0 0 C0.66 0 1.32 0 2 0 C3.125 1.75 3.125 1.75 4 4 C3.125 6.25 3.125 6.25 2 8 C1.01 8 0.02 8 -1 8 C-0.67 5.36 -0.34 2.72 0 0 Z " fill="#204393" transform="translate(385,170)"/>
<path d="M0 0 C0.99 0.33 1.98 0.66 3 1 C1.625 2.5 1.625 2.5 0 4 C-0.66 4 -1.32 4 -2 4 C-2 4.66 -2 5.32 -2 6 C-2.99 6.33 -3.98 6.66 -5 7 C-5.33 5.68 -5.66 4.36 -6 3 C-5.195625 2.690625 -4.39125 2.38125 -3.5625 2.0625 C-1.10919595 1.23664655 -1.10919595 1.23664655 0 0 Z " fill="#496199" transform="translate(109,280)"/>
<path d="M0 0 C5.65394631 -0.34615998 9.03006806 0.56574762 14 3 C13.01 3.66 12.02 4.32 11 5 C10.113125 4.525625 9.22625 4.05125 8.3125 3.5625 C5.42957244 2.20262851 3.12389377 1.45939614 0 1 C0 0.67 0 0.34 0 0 Z " fill="#4F699A" transform="translate(271,270)"/>
<path d="M0 0 C1.32 0.66 2.64 1.32 4 2 C2.71475739 2.86380259 1.42157581 3.71580369 0.125 4.5625 C-0.59429687 5.03816406 -1.31359375 5.51382812 -2.0546875 6.00390625 C-2.69664063 6.33261719 -3.33859375 6.66132813 -4 7 C-4.66 6.67 -5.32 6.34 -6 6 C-4 3 -4 3 -1.875 2.3125 C-1.25625 2.209375 -0.6375 2.10625 0 2 C0 1.34 0 0.68 0 0 Z " fill="#54689D" transform="translate(128,266)"/>
<path d="M0 0 C0.89203125 0.11085938 1.7840625 0.22171875 2.703125 0.3359375 C3.37859375 0.43132812 4.0540625 0.52671875 4.75 0.625 C4.09 1.285 3.43 1.945 2.75 2.625 C-0.0703125 2.6015625 -0.0703125 2.6015625 -3.375 2.25 C-4.47070312 2.13914062 -5.56640625 2.02828125 -6.6953125 1.9140625 C-7.53835938 1.81867188 -8.38140625 1.72328125 -9.25 1.625 C-5.9353333 -0.40407167 -3.8184021 -0.50242133 0 0 Z " fill="#5171A4" transform="translate(299.25,258.375)"/>
<path d="M0 0 C0.6875 1.75 0.6875 1.75 1 4 C-0.4375 6.25 -0.4375 6.25 -2 8 C-2 6.68 -2 5.36 -2 4 C-3.32 4.33 -4.64 4.66 -6 5 C-5.67 3.68 -5.34 2.36 -5 1 C-5 1.66 -5 2.32 -5 3 C-3.35 2.01 -1.7 1.02 0 0 Z " fill="#6078AB" transform="translate(246,210)"/>
<path d="M0 0 C4.10899581 1.12795963 8.07561214 2.33510818 12 4 C11.67 4.66 11.34 5.32 11 6 C9.02 5.34 7.04 4.68 5 4 C5 3.34 5 2.68 5 2 C3.35 2 1.7 2 0 2 C0 1.34 0 0.68 0 0 Z " fill="#566C9D" transform="translate(195,247)"/>
<path d="M0 0 C0.99 0.33 1.98 0.66 3 1 C2.71125 1.556875 2.4225 2.11375 2.125 2.6875 C0.9586747 5.08494645 -0.0339881 7.51596939 -1 10 C-1.66 10 -2.32 10 -3 10 C-2.01 6.7 -1.02 3.4 0 0 Z " fill="#4C6098" transform="translate(262,153)"/>
<path d="M0 0 C0.99 0.33 1.98 0.66 3 1 C3.33 1.99 3.66 2.98 4 4 C3.34 4 2.68 4 2 4 C1.67 4.66 1.34 5.32 1 6 C-0.32 5.67 -1.64 5.34 -3 5 C-3 3 -3 3 -1.5 1.375 C-1.005 0.92125 -0.51 0.4675 0 0 Z " fill="#415A9E" transform="translate(212,337)"/>
<path d="M0 0 C0 3 0 3 -1.5 4.6875 C-1.995 5.120625 -2.49 5.55375 -3 6 C-3.99 5.67 -4.98 5.34 -6 5 C-5.25 3.0625 -5.25 3.0625 -4 1 C-1.875 0.25 -1.875 0.25 0 0 Z " fill="#1D3A80" transform="translate(287,298)"/>
<path d="M0 0 C0.66 0.99 1.32 1.98 2 3 C1.01 4.98 0.02 6.96 -1 9 C-1.66 8.34 -2.32 7.68 -3 7 C-3 5.68 -3 4.36 -3 3 C-2.01 3 -1.02 3 0 3 C0 2.01 0 1.02 0 0 Z " fill="#3E5991" transform="translate(290,290)"/>
<path d="M0 0 C0.66 0.33 1.32 0.66 2 1 C2 2.98 2 4.96 2 7 C0.68 7 -0.64 7 -2 7 C-2.33 6.01 -2.66 5.02 -3 4 C-2.34 3.67 -1.68 3.34 -1 3 C-0.67 2.01 -0.34 1.02 0 0 Z " fill="#475C98" transform="translate(364,286)"/>
<path d="M0 0 C0.33 0.99 0.66 1.98 1 3 C1.99 3 2.98 3 4 3 C4.33 3.99 4.66 4.98 5 6 C3.68 6 2.36 6 1 6 C0.34 6.66 -0.32 7.32 -1 8 C-1.04241723 5.66705225 -1.04092937 3.33297433 -1 1 C-0.67 0.67 -0.34 0.34 0 0 Z " fill="#1E3E8B" transform="translate(371,221)"/>
<path d="M0 0 C1.12758089 3.38274266 0.81750262 4.76778223 0.0625 8.1875 C-0.13214844 9.08855469 -0.32679688 9.98960937 -0.52734375 10.91796875 C-0.68332031 11.60503906 -0.83929688 12.29210937 -1 13 C-1.33 13 -1.66 13 -2 13 C-2.05391993 11.20866022 -2.09275571 9.41686101 -2.125 7.625 C-2.14820313 6.62726563 -2.17140625 5.62953125 -2.1953125 4.6015625 C-2 2 -2 2 0 0 Z " fill="#4B6290" transform="translate(390,198)"/>
<path d="M0 0 C2.31 0 4.62 0 7 0 C7.33 1.32 7.66 2.64 8 4 C5.23723823 3.47731534 2.6739124 2.89130413 0 2 C0 1.34 0 0.68 0 0 Z " fill="#546799" transform="translate(210,301)"/>
<path d="M0 0 C0.66 0 1.32 0 2 0 C2 0.66 2 1.32 2 2 C2.66 2 3.32 2 4 2 C4.33 2.99 4.66 3.98 5 5 C3.1875 5.625 3.1875 5.625 1 6 C0.01 5.34 -0.98 4.68 -2 4 C-1.34 2.68 -0.68 1.36 0 0 Z " fill="#1E4491" transform="translate(198,249)"/>
<path d="M0 0 C0 0.33 0 0.66 0 1 C-3.63 1.33 -7.26 1.66 -11 2 C-11 1.34 -11 0.68 -11 0 C-6.94952424 -1.35015859 -4.2079832 -0.62084998 0 0 Z " fill="#7182AF" transform="translate(380,138)"/>
<path d="M0 0 C1.2065625 0.0309375 1.2065625 0.0309375 2.4375 0.0625 C1.625 2 1.625 2 0.4375 4.0625 C-0.5525 4.3925 -1.5425 4.7225 -2.5625 5.0625 C-3.125 3.125 -3.125 3.125 -3.5625 1.0625 C-2.5625 0.0625 -2.5625 0.0625 0 0 Z " fill="#385498" transform="translate(292.5625,331.9375)"/>
<path d="M0 0 C2.79908133 2.79908133 2.72362983 5.13081763 3 9 C2.34 9.66 1.68 10.32 1 11 C-0.28317892 7.15046324 -0.06643637 4.05261865 0 0 Z " fill="#1E438C" transform="translate(400,138)"/>
<path d="M0 0 C-0.33 0.66 -0.66 1.32 -1 2 C-4.4375 2.75 -4.4375 2.75 -8 3 C-8.66 2.34 -9.32 1.68 -10 1 C-6.61981469 -0.04005702 -3.5219721 -0.08004482 0 0 Z " fill="#506194" transform="translate(260,332)"/>
<path d="M0 0 C-4.625 4 -4.625 4 -8 4 C-8 3.34 -8 2.68 -8 2 C-4.77208445 -0.1519437 -3.71599191 -0.20086443 0 0 Z " fill="#4E689C" transform="translate(306,327)"/>
<path d="M0 0 C0.99 0 1.98 0 3 0 C3 1.65 3 3.3 3 5 C3.66 5.33 4.32 5.66 5 6 C3.68 6.33 2.36 6.66 1 7 C1.33 6.01 1.66 5.02 2 4 C1.01 3.67 0.02 3.34 -1 3 C-0.67 2.01 -0.34 1.02 0 0 Z " fill="#204291" transform="translate(216,296)"/>
<path d="M0 0 C0.33 0.99 0.66 1.98 1 3 C0.01 4.485 0.01 4.485 -1 6 C-2.32 5.34 -3.64 4.68 -5 4 C-5 3.34 -5 2.68 -5 2 C-4.360625 1.855625 -3.72125 1.71125 -3.0625 1.5625 C-1.02454854 1.18992819 -1.02454854 1.18992819 0 0 Z " fill="#21408B" transform="translate(339,288)"/>
<path d="M0 0 C3.63 0.33 7.26 0.66 11 1 C9.68 1.33 8.36 1.66 7 2 C6.67 2.66 6.34 3.32 6 4 C4.02 3.01 2.04 2.02 0 1 C0 0.67 0 0.34 0 0 Z " fill="#6478A6" transform="translate(241,266)"/>
<path d="M0 0 C3.4375 0.8125 3.4375 0.8125 7 2 C7.33 2.99 7.66 3.98 8 5 C4.5625 4.1875 4.5625 4.1875 1 3 C0.67 2.01 0.34 1.02 0 0 Z " fill="#1E488F" transform="translate(124,262)"/>
<path d="M0 0 C2.9375 0.8125 2.9375 0.8125 6 2 C6.33 2.99 6.66 3.98 7 5 C4.03 4.01 1.06 3.02 -2 2 C-1.34 1.34 -0.68 0.68 0 0 Z " fill="#697BA7" transform="translate(199,260)"/>
<path d="M0 0 C3.3 0 6.6 0 10 0 C7.08235 1.9451 5.37462715 2.45276317 2 3 C1.34 2.01 0.68 1.02 0 0 Z " fill="#203F80" transform="translate(255,269)"/>
<path d="M0 0 C-0.66 0.66 -1.32 1.32 -2 2 C-3.32 2 -4.64 2 -6 2 C-6.33 2.66 -6.66 3.32 -7 4 C-7.33 3.01 -7.66 2.02 -8 1 C-4.93251126 -0.86240388 -3.40254489 -1.2151946 0 0 Z " fill="#3F558F" transform="translate(362,263)"/>
<path d="M0 0 C2 2 2 2 2.125 5.625 C2.08375 6.73875 2.0425 7.8525 2 9 C-0.57781906 6.42218094 -0.62129616 4.5598161 -1 1 C-0.67 0.67 -0.34 0.34 0 0 Z " fill="#435F9A" transform="translate(381,227)"/>
<path d="M0 0 C0.66 0 1.32 0 2 0 C1.25 5.75 1.25 5.75 -1 8 C-2.2077558 4.37673261 -1.54311128 3.35853631 0 0 Z " fill="#4F6599" transform="translate(255,171)"/>
</svg>
