<?xml version="1.0" encoding="utf-8"?>
<!-- Generator: Adobe Illustrator 26.0.1, SVG Export Plug-In . SVG Version: 6.00 Build 0)  -->
<svg version="1.1" id="Icons" xmlns="http://www.w3.org/2000/svg" xmlns:xlink="http://www.w3.org/1999/xlink" x="0px" y="0px"
	 viewBox="0 0 178.5 147.2" style="enable-background:new 0 0 178.5 147.2;" xml:space="preserve">
<style type="text/css">
	.st0{fill:none;stroke:#000000;stroke-width:20;stroke-linecap:round;stroke-linejoin:round;stroke-miterlimit:10;}
</style>
<g transform="translate(150 130) scale(0.47) translate(-499 -295)">
	<path d="M284.1,231.8c44.3,5.4,88,10.6,131.8,15.9c7,0.8,14,1.7,20.9,3.1c7.3,1.5,8.4,5.5,3.2,10.9c-8.1,8.3-18.3,10.4-29.4,9.3
		c-23.9-2.5-47.7-6.6-71.4-10.3c-43.7-6.8-87.4-13.9-130.9-22c-3.8-0.7-8.2-0.1-12.1-4.1C225.5,226.5,254.4,227.4,284.1,231.8z"/>
	<path d="M452.7,67.3c-31.2,4.5-61.8,8.8-92.4,13.2c-8.8,1.2-17.5,2.5-26.3,3.5c-7.9,0.9-13.1,4.4-16.3,12.2
		c-16.2,39.8-33.3,79.3-52.2,117.9c-1,2.1-1.5,4.8-4.5,6c-1.9-2.1-0.6-4.2,0-6.2c9-32.7,21.3-64.3,33.2-96
		c3.6-9.6,7.5-19.1,10.8-28.8c3.9-11.4,11.7-17.7,23.3-19.4c60.7-9.2,120.9-20.5,181.4-30.8c3.8-0.6,7.7-0.9,11.5-0.8
		c13.5,0.5,22.4,9.7,22.3,23.3c-0.1,13.1-4.7,25.4-7.6,38c-13.2,55.9-26.9,111.8-40,167.7c-3.9,16.8-12.9,26.9-30.6,29
		c-29.1,3.4-58.2,6.6-86.6,14.2c-0.9,0.2-3.8,0.9-4.7,1.1c-1.8,0.4-3.9,1-5.1-0.8c-1.4-2.3,0.4-3.9,1.9-5.2
		c7.4-7,16.5-11.2,25.8-14.9c17.8-7.1,36.5-11.3,55.3-14.6c11.8-2,18.1-7.9,21.1-19.7c15.4-61.3,31.3-122.4,47.1-183.6
		c0.3-1.3,0.7-2.6,0.9-4c1.5-7.8-1.8-11.3-9.7-10.2C491.9,61.2,472.6,64.3,452.7,67.3z"/>
	<polyline class="st0" transform="rotate(-20, 398.9, 155.35)" points="350.7,155.3 362.8,180.8 447.1,129.9 	"/>
</g>
</svg>
