<svg xmlns="http://www.w3.org/2000/svg" version="1.1" id="Layer_1" x="0px" y="0px" width="100%" viewBox="297 145 404 300" enable-background="new 0 0 1024 576" xml:space="preserve" height="100%">
<defs><linearGradient id="brandGradient" x1="0%" y1="0%" x2="100%" y2="100%"><stop offset="0%" style="stop-color:#d97706" /><stop offset="50%" style="stop-color:#f59e0b" /><stop offset="100%" style="stop-color:#b45309" /></linearGradient></defs><path fill="url(#brandGradient)" opacity="1.000000" stroke="none" d=" M624.843018,176.096802   C602.005615,179.361786 579.607727,182.572388 557.205322,185.751495   C550.782288,186.662994 544.358521,187.593109 537.912598,188.313126   C532.093750,188.963058 528.304871,191.551468 525.975769,197.274612   C514.108093,226.436218 501.582520,255.317932 487.779938,283.627716   C487.014069,285.198578 486.650696,287.153381 484.472900,288.052979   C483.072693,286.521332 484.046967,284.998627 484.450500,283.522644   C491.006104,259.543823 500.032776,236.418152 508.747162,213.184921   C511.379486,206.166992 514.226562,199.222809 516.632996,192.128754   C519.453186,183.814957 525.200867,179.194901 533.665222,177.916504   C578.084351,171.207764 622.226501,162.879333 666.501831,155.330460   C669.273193,154.857956 672.143738,154.678329 674.954041,154.774643   C684.858704,155.114136 691.377136,161.881668 691.310852,171.837952   C691.246887,181.443985 687.876282,190.455215 685.713135,199.649872   C676.073486,240.623199 665.999939,281.494629 656.408508,322.479004   C653.525513,334.798218 646.979248,342.159637 634.023865,343.695221   C613.872253,346.083679 593.674133,348.286957 573.920715,353.231079   C571.659912,353.796967 569.399719,354.368195 567.127319,354.884308   C565.830261,355.178894 564.309509,355.597748 563.461182,354.255981   C562.417969,352.605896 563.773682,351.413971 564.833984,350.411407   C570.267212,345.273712 576.932373,342.231506 583.757935,339.495789   C596.812073,334.263702 610.474792,331.208191 624.251404,328.810181   C632.859741,327.311768 637.493958,323.060852 639.672729,314.365356   C650.917786,269.485779 662.628174,224.722748 674.172119,179.918015   C674.421082,178.951691 674.654053,177.978958 674.838623,176.998688   C675.907898,171.320480 673.505249,168.703781 667.714844,169.558365   C653.560059,171.647415 639.424255,173.864731 624.843018,176.096802  z" />
<path fill="url(#brandGradient)" opacity="1.000000" stroke="none" d=" M368.984558,306.854553   C398.774017,294.970398 427.021820,298.512177 454.474487,313.157593   C467.885712,320.312195 481.670807,326.715240 496.814514,329.134216   C508.793793,331.047668 520.901428,332.150238 532.940063,333.705933   C535.235229,334.002502 537.526001,334.574249 539.731018,335.289551   C555.031494,340.253296 559.584229,354.025574 550.256348,367.264709   C542.794434,377.855438 532.021606,382.986206 519.656433,385.275879   C508.184814,387.400085 496.771942,386.636932 485.480225,384.032196   C464.359985,379.160217 446.039520,367.419159 425.923584,360.079926   C426.570648,357.708679 428.070862,358.453766 429.268555,358.457550   C443.490509,358.502380 456.724792,363.296234 470.159851,367.058624   C483.855865,370.894104 497.652527,373.754059 511.996155,372.788544   C520.738770,372.200012 528.531677,369.267761 535.287842,363.628113   C536.979919,362.215668 538.376160,360.577637 539.422668,358.670624   C542.048950,353.884766 540.831238,350.789673 535.557983,349.150116   C527.829590,346.747223 519.740540,346.944916 511.808960,346.457367   C494.459015,345.390839 477.955658,341.615295 462.445038,333.591461   C452.542938,328.469025 442.643433,323.293213 432.032135,319.704163   C411.195557,312.656616 390.742401,314.282166 370.604767,322.490326   C353.406708,329.500275 338.603546,340.142883 325.032196,352.648071   C323.076080,354.450500 321.136292,356.337433 318.924194,357.778931   C315.949310,359.717438 312.502258,360.542267 309.872894,357.431091   C307.443268,354.556305 308.579468,351.388245 310.760498,348.791687   C315.815186,342.773956 321.827911,337.728516 327.758484,332.624817   C340.078766,322.022308 353.448151,313.058746 368.984558,306.854553  z" />
<path fill="url(#brandGradient)" opacity="1.000000" stroke="none" d=" M596.723633,387.788818   C578.428650,398.779846 561.284424,410.974243 542.444824,420.356628   C520.370056,431.350159 497.446350,434.284973 473.592773,427.474670   C453.751343,421.809906 434.063416,415.599823 414.179474,410.093689   C394.438873,404.627228 374.253815,403.056549 353.826172,404.810669   C353.411255,404.846252 352.966156,404.529633 352.048309,404.205261   C353.875305,401.895752 356.322540,401.421631 358.571960,400.700684   C382.052826,393.175049 405.749115,393.052185 429.492615,399.127228   C443.674225,402.755707 457.735016,406.860138 471.831421,410.817108   C493.035614,416.769257 512.586426,412.210083 531.437012,401.963440   C550.497009,391.602905 567.719055,378.307220 586.659973,367.783295   C598.466064,361.223663 610.378357,354.834290 623.841064,352.263855   C628.935059,351.291229 634.106995,351.044312 639.168457,352.574615   C641.618286,353.315216 643.875671,354.445435 644.269470,357.417633   C644.653503,360.317169 643.012085,362.162354 640.814026,363.568970   C638.995178,364.732880 637.091614,365.795746 635.133789,366.705902   C621.969177,372.825775 609.450867,380.117950 596.723633,387.788818  z" />
<path fill="url(#brandGradient)" opacity="1.000000" stroke="none" d=" M510.672943,298.128052   C543.134827,302.071228 575.153564,305.910553 607.166809,309.795929   C612.283264,310.416901 617.419678,311.020691 622.465271,312.037262   C627.822876,313.116699 628.653137,316.092438 624.786804,320.022552   C618.840027,326.067596 611.412109,327.648560 603.222839,326.799774   C585.686890,324.982239 568.323242,321.981628 550.916931,319.271942   C518.892761,314.286743 486.900269,309.106720 455.032562,303.196350   C452.263672,302.682800 449.039734,303.104492 446.205078,300.222534   C467.764435,294.203949 488.945953,294.861298 510.672943,298.128052  z" />
</svg>